<svg xmlns="http://www.w3.org/2000/svg" xmlns:svg="http://www.w3.org/2000/svg" id="SVGRoot" width="1000" height="1000" version="1.1" viewBox="0 0 1000 1000"><metadata id="metadata5120"/><g id="layer1" style="display:inline"><rect style="fill:#d0d0d0;fill-opacity:1;stroke:none;stroke-width:1.51092136;stroke-linecap:round;stroke-linejoin:round;stroke-miterlimit:4;stroke-dasharray:none;stroke-opacity:1;paint-order:normal" id="rect5876" width="1000.004" height="1000" x="0" y="0"/></g><g id="layer3" style="display:inline"><g id="g5890" transform="translate(-10)"><path id="path5762" d="M 861.29285,497.07031 C 861.65556,665.3247 774.21642,807.40548 511.60027,807.86794 270.63622,808.29226 154.54309,691.2756 155.19024,504.19228 155.7289,348.47535 251.17288,227.4551 422.3176,205.3802 c -35.32036,-75.85452 52.24232,-96.94648 73.77615,-32.00508 13.73451,-37.63439 108.24345,-49.1716 62.21106,24.77055 147.95052,3.75658 302.58353,111.28061 302.98804,298.92464 z" style="display:inline;fill:#767676;fill-opacity:1;stroke:none;stroke-width:2.57058167;stroke-linecap:round;stroke-linejoin:round;stroke-miterlimit:4;stroke-dasharray:none;stroke-opacity:1;paint-order:normal"/><path id="path5780" d="m 809.15213,517.31679 c -4.83374,150.52526 -109.85544,235.22815 -297.81171,235.31839 -179.6675,0.0863 -290.56109,-70.98245 -298.50223,-235.31839 -4.6366,-95.95095 54.62861,-181.84442 144.83016,-194.18834 80.92123,-11.07393 99.7402,21.01802 153.67207,21.01802 59.21658,0 83.64871,-35.09608 162.84221,-21.85479 87.78391,14.67763 137.90533,103.6017 134.9695,195.02511 z" style="display:inline;fill:#e8e8e8;fill-opacity:1;stroke:none;stroke-width:1.5;stroke-linecap:round;stroke-linejoin:round;stroke-miterlimit:4;stroke-dasharray:none;stroke-opacity:1;paint-order:normal"/><path id="path5780-9" d="m 809.15213,517.31679 c -1.32872,41.37724 -10.22787,77.78081 -26.33906,108.8204 -46.60931,-39.48031 -99.53509,-10.7281 -171.50115,-39.43334 -44.77145,-17.85808 -51.41659,-56.56453 -51.21999,-81.3542 0.54836,-69.14384 48.17003,-93.45758 95.53601,-97.60875 55.74677,-4.88566 124.5246,36.1482 151.01547,66.79433 2.11531,14.01083 2.97167,28.36512 2.50872,42.78156 z" style="display:inline;fill:#a1a1a1;fill-opacity:1;stroke:none;stroke-width:1.5;stroke-linecap:round;stroke-linejoin:round;stroke-miterlimit:4;stroke-dasharray:none;stroke-opacity:1;paint-order:normal"/><ellipse id="path5816" cx="646.858" cy="502.643" rx="37.801" ry="50.576" style="fill:#767676;fill-opacity:1;stroke:none;stroke-width:1.51185882;stroke-linecap:round;stroke-linejoin:round;stroke-miterlimit:4;stroke-dasharray:none;stroke-opacity:1;paint-order:normal"/><path id="path5780-9-1" d="m 212.51463,517.3246 c 1.32872,41.37724 10.22787,77.78081 26.33906,108.8204 46.60931,-39.48031 99.57415,-10.73591 171.54021,-39.44115 44.77145,-17.85808 51.41659,-56.56453 51.21999,-81.3542 -0.54836,-69.14384 -48.20909,-93.44977 -95.57507,-97.60094 -55.74677,-4.88566 -124.5246,36.1482 -151.01547,66.79433 -2.11531,14.01083 -2.97167,28.36512 -2.50872,42.78156 z" style="display:inline;fill:#a1a1a1;fill-opacity:1;stroke:none;stroke-width:1.5;stroke-linecap:round;stroke-linejoin:round;stroke-miterlimit:4;stroke-dasharray:none;stroke-opacity:1;paint-order:normal"/><ellipse id="path5816-0" cx="-374.848" cy="502.643" rx="37.801" ry="50.576" transform="scale(-1,1)" style="display:inline;fill:#767676;fill-opacity:1;stroke:none;stroke-width:1.51185882;stroke-linecap:round;stroke-linejoin:round;stroke-miterlimit:4;stroke-dasharray:none;stroke-opacity:1;paint-order:normal"/><path id="path5862" d="m 543.96613,556.96185 c 0,11.0622 -14.51648,20.02988 -32.42347,20.02988 -17.90698,0 -32.42347,-8.96769 -32.42347,-20.02988 0,-11.0622 14.14619,-15.58638 32.05318,-15.58638 17.90698,0 32.79376,4.52417 32.79376,15.58638 z" style="display:inline;fill:#767676;fill-opacity:1;stroke:none;stroke-width:1.60515046;stroke-linecap:round;stroke-linejoin:round;stroke-miterlimit:4;stroke-dasharray:none;stroke-opacity:1;paint-order:normal"/><path id="path5865" d="m 552.00195,620.36132 c 7.06643,13.89391 -19.38375,21.24024 -40.2832,21.24024 -20.89945,0 -47.71708,-7.02219 -41.50391,-21.24024 5.71775,-13.08435 20.11619,0.73243 41.01563,0.73243 20.89944,0 34.43888,-13.1835 40.77148,-0.73243 z" style="display:inline;fill:#767676;fill-opacity:1;stroke:none;stroke-width:1.5;stroke-linecap:round;stroke-linejoin:round;stroke-miterlimit:4;stroke-dasharray:none;stroke-opacity:1;paint-order:normal"/><ellipse id="path5818" cx="600.247" cy="560.957" rx="19.512" ry="24.883" transform="rotate(-6.669407)" style="display:inline;fill:#fff;fill-opacity:1;stroke:none;stroke-width:1.53898752;stroke-linecap:round;stroke-linejoin:round;stroke-miterlimit:4;stroke-dasharray:none;stroke-opacity:1;paint-order:normal"/><ellipse id="path5818-8" cx="329.697" cy="529.321" rx="19.512" ry="24.883" transform="rotate(-6.6694071)" style="display:inline;fill:#fff;fill-opacity:1;stroke:none;stroke-width:1.53898752;stroke-linecap:round;stroke-linejoin:round;stroke-miterlimit:4;stroke-dasharray:none;stroke-opacity:1;paint-order:normal"/></g></g></svg>