<?xml version="1.0" encoding="utf-8"?>
<!DOCTYPE svg PUBLIC "-//W3C//DTD SVG 1.1//EN" "http://www.w3.org/Graphics/SVG/1.1/DTD/svg11.dtd">
<svg version="1.1" xmlns="http://www.w3.org/2000/svg">
    <defs>
    <mask id="logo_mask" maskUnits="objectBoundingBox" maskContentUnits="objectBoundingBox"> >
      <path
         d="M 3.373397,24.925245 3.1938175,24.864033 C 2.9783852,24.790602 2.7764427,24.711452 2.576333,24.622018 2.1356898,24.425082 1.5892046,24.079338 1.3712245,23.859582 c -0.2590846,-0.261194 -1.09281192,-1.09343 -1.38119999,-1.57298 0,0 0.04301756,-13.080693 0.03682785,-18.90953 C 0.18855639,2.6656386 0.64742664,2.0535848 0.99775771,1.5652652 1.6072296,0.97025411 2.5701313,0.19769558 2.9678895,0.09950949 c 0,0 12.9137435,-0.01484001 18.7039335,-0.05867517 0.847454,0.33698487 1.568727,0.88542472 2.11547,1.39213058 0.494844,0.4061206 0.731319,1.0034068 0.991156,1.5173636 0.08059,6.4402732 0.282614,12.9244675 0.19849,18.0961945 -0.343259,1.893337 -1.391611,3.042648 -2.974927,3.719347 -0.09256,0.02206 -0.277975,0.06698 -0.412038,0.09983 -6.265977,0.251978 -12.772934,0.154464 -18.216577,0.05954 z m 17.765379,-1.071592 c 0.761914,-0.07648 1.302942,-0.483573 1.80374,-0.883622 0.367357,-0.361514 0.877684,-0.872658 0.975573,-1.28968 0.28152,-6.286673 -0.0046,-12.5361934 -0.03236,-18.283829 C 23.789738,3.1265829 23.574866,2.7623056 23.332691,2.459023 22.762957,1.7080191 21.824771,1.336704 21.096224,1.0480279 19.421104,0.93184658 18.373471,0.94587766 16.992164,0.9257547 c -6.01e-4,2.2079105 0.0093,4.417548 -0.0085,6.6245631 -2.573444,0.038646 -5.159205,0.044099 -7.9906245,0.076741 -0.00473,1.7025313 -0.00312,3.0000532 -0.00312,4.8341202 2.6428485,0.01943 5.2871665,0.04325 7.9284675,0.10321 0.08164,1.990898 0.123956,3.951248 0.02955,5.922013 -2.797791,0.05135 -4.983297,0.0798 -7.9548925,0.12738 -0.00163,1.883617 -0.014112,3.365037 0.012505,5.357484 4.2382165,-0.0779 8.4402525,0.04732 12.1332265,-0.117613 z"
         style="fill-rule:evenodd;clip-rule:evenodd;fill:#ffffff;" />
    </mask>
  </defs>
  <g id="layer1">
  <path
     d="M 3.373397,24.925245 3.1938175,24.864033 C 2.9783852,24.790602 2.7764427,24.711452 2.576333,24.622018 2.1356898,24.425082 1.5892046,24.079338 1.3712245,23.859582 c -0.2590846,-0.261194 -1.09281192,-1.09343 -1.38119999,-1.57298 0,0 0.04301756,-13.080693 0.03682785,-18.90953 C 0.18855639,2.6656386 0.64742664,2.0535848 0.99775771,1.5652652 1.6072296,0.97025411 2.5701313,0.19769558 2.9678895,0.09950949 c 0,0 12.9137435,-0.01484001 18.7039335,-0.05867517 0.847454,0.33698487 1.568727,0.88542472 2.11547,1.39213058 0.494844,0.4061206 0.731319,1.0034068 0.991156,1.5173636 0.08059,6.4402732 0.282614,12.9244675 0.19849,18.0961945 -0.343259,1.893337 -1.391611,3.042648 -2.974927,3.719347 -0.09256,0.02206 -0.277975,0.06698 -0.412038,0.09983 -6.265977,0.251978 -12.772934,0.154464 -18.216577,0.05954 z m 17.765379,-1.071592 c 0.761914,-0.07648 1.302942,-0.483573 1.80374,-0.883622 0.367357,-0.361514 0.877684,-0.872658 0.975573,-1.28968 0.28152,-6.286673 -0.0046,-12.5361934 -0.03236,-18.283829 C 23.789738,3.1265829 23.574866,2.7623056 23.332691,2.459023 22.762957,1.7080191 21.824771,1.336704 21.096224,1.0480279 19.421104,0.93184658 18.373471,0.94587766 16.992164,0.9257547 c -6.01e-4,2.2079105 0.0093,4.417548 -0.0085,6.6245631 -2.573444,0.038646 -5.159205,0.044099 -7.9906245,0.076741 -0.00473,1.7025313 -0.00312,3.0000532 -0.00312,4.8341202 2.6428485,0.01943 5.2871665,0.04325 7.9284675,0.10321 0.08164,1.990898 0.123956,3.951248 0.02955,5.922013 -2.797791,0.05135 -4.983297,0.0798 -7.9548925,0.12738 -0.00163,1.883617 -0.014112,3.365037 0.012505,5.357484 4.2382165,-0.0779 8.4402525,0.04732 12.1332265,-0.117613 z"
     id="path3425"
     style="fill:#000000" />
  </g>
</svg>
